# xmcd
#
# Track frame offsets:
#	150
#	9198
#	22382
#	33353
#	42194
#	53220
#	61655
#	72408
#	80869
#	89399
#	97926
#	108376
#	118018
#	129536
#
# Disc length: 1894 seconds
#
# Revision: 1
# Processed by: cddbd v1.5.2PL0 Copyright (c) Steve Scherf et al.
# Submitted via: EZCDAudioConverter 7.0.7.1
#
DISCID=b707640e
DTITLE=Dolly Parton - I Believe In You
DYEAR=2017
DGENRE=Country
TTITLE0=I Believe In You
TTITLE1=Coat Of Many Colors
TTITLE2=Together Forever
TTITLE3=I Am A Rainbow
TTITLE4=I'm Here
TTITLE5=A Friend Like You
TTITLE6=Imagination
TTITLE7=You Can Do It
TTITLE8=Responsibility
TTITLE9=You Gotta Be
TTITLE10=Makin' Fun Ain't Funny
TTITLE11=Chemo Hero
TTITLE12=Brave Little Soldier
TTITLE13=A Reading Of "Coat Of Many Colors"
EXTD=
EXTT0=
EXTT1=
EXTT2=
EXTT3=
EXTT4=
EXTT5=
EXTT6=
EXTT7=
EXTT8=
EXTT9=
EXTT10=
EXTT11=
EXTT12=
EXTT13=
PLAYORDER=
